<mxfile host="app.diagrams.net" modified="2021-07-02T03:28:34.885Z" agent="5.0 (Macintosh; Intel Mac OS X 10_15_7) AppleWebKit/537.36 (KHTML, like Gecko) Chrome/91.0.4472.114 Safari/537.36" etag="HgOLN0xqRxlMXE5ikfJA" version="14.8.3" type="github">
  <diagram name="Page-1" id="aaaa8250-4180-3840-79b5-4cada1eebb92">
    <mxGraphModel dx="1892" dy="1292" grid="1" gridSize="10" guides="1" tooltips="1" connect="1" arrows="1" fold="1" page="1" pageScale="1" pageWidth="850" pageHeight="1100" background="none" math="0" shadow="0">
      <root>
        <mxCell id="0" />
        <mxCell id="1" parent="0" />
        <mxCell id="JwNSlMBxFUs_ktbdsOI0-27" value="" style="verticalLabelPosition=bottom;html=1;verticalAlign=top;strokeWidth=1;align=center;outlineConnect=0;dashed=0;outlineConnect=0;shape=mxgraph.aws3d.flatDoubleEdge;fillColor=#000000;aspect=fixed;fontSize=30;fontColor=#000000;" vertex="1" parent="1">
          <mxGeometry x="980" y="507.09" width="672.22" height="382.91" as="geometry" />
        </mxCell>
        <mxCell id="JwNSlMBxFUs_ktbdsOI0-26" value="" style="verticalLabelPosition=bottom;html=1;verticalAlign=top;strokeWidth=1;align=center;outlineConnect=0;dashed=0;outlineConnect=0;shape=mxgraph.aws3d.flatDoubleEdge;fillColor=#000000;aspect=fixed;fontSize=30;fontColor=#000000;" vertex="1" parent="1">
          <mxGeometry x="660" y="687.09" width="672.22" height="382.91" as="geometry" />
        </mxCell>
        <mxCell id="JwNSlMBxFUs_ktbdsOI0-16" value="" style="verticalLabelPosition=bottom;html=1;verticalAlign=top;strokeWidth=1;align=center;outlineConnect=0;dashed=0;outlineConnect=0;shape=mxgraph.aws3d.application_server;fillColor=#a20025;strokeColor=#6F0000;aspect=fixed;fontSize=30;fontColor=#ffffff;" vertex="1" parent="1">
          <mxGeometry x="880" y="720" width="123" height="124" as="geometry" />
        </mxCell>
        <mxCell id="JwNSlMBxFUs_ktbdsOI0-17" value="" style="verticalLabelPosition=bottom;html=1;verticalAlign=top;strokeWidth=1;align=center;outlineConnect=0;dashed=0;outlineConnect=0;shape=mxgraph.aws3d.application_server;fillColor=#60a917;strokeColor=#2D7600;aspect=fixed;fontSize=30;fontColor=#ffffff;" vertex="1" parent="1">
          <mxGeometry x="810" y="760" width="123" height="124" as="geometry" />
        </mxCell>
        <mxCell id="JwNSlMBxFUs_ktbdsOI0-18" value="" style="verticalLabelPosition=bottom;html=1;verticalAlign=top;strokeWidth=1;align=center;outlineConnect=0;dashed=0;outlineConnect=0;shape=mxgraph.aws3d.application_server;fillColor=#1ba1e2;strokeColor=#006EAF;aspect=fixed;fontSize=30;fontColor=#ffffff;" vertex="1" parent="1">
          <mxGeometry x="950" y="760" width="123" height="124" as="geometry" />
        </mxCell>
        <mxCell id="JwNSlMBxFUs_ktbdsOI0-19" value="垒知协平台" style="verticalLabelPosition=bottom;html=1;verticalAlign=top;strokeWidth=1;align=center;outlineConnect=0;dashed=0;outlineConnect=0;shape=mxgraph.aws3d.application_server;fillColor=#e3c800;strokeColor=#B09500;aspect=fixed;fontSize=30;fontColor=#000000;" vertex="1" parent="1">
          <mxGeometry x="880" y="800" width="123" height="124" as="geometry" />
        </mxCell>
        <mxCell id="JwNSlMBxFUs_ktbdsOI0-21" value="Nginx" style="verticalLabelPosition=bottom;html=1;verticalAlign=top;strokeWidth=1;align=center;outlineConnect=0;dashed=0;outlineConnect=0;shape=mxgraph.aws3d.customerGateway;fillColor=#ECECEC;strokeColor=#5E5E5E;aspect=fixed;fontSize=30;fontColor=#000000;" vertex="1" parent="1">
          <mxGeometry x="410" y="469" width="183.67" height="161.8" as="geometry" />
        </mxCell>
        <mxCell id="d5ac148becb70bc-9" value="" style="verticalLabelPosition=bottom;html=1;verticalAlign=top;strokeWidth=1;dashed=0;shape=mxgraph.aws3d.dashedArrowlessEdge;aspect=fixed;rounded=1;shadow=0;comic=0;fontFamily=Verdana;fontSize=12;direction=east;" parent="1" vertex="1">
          <mxGeometry x="1764.5" y="850" width="333.44" height="190" as="geometry" />
        </mxCell>
        <mxCell id="d5ac148becb70bc-10" value="" style="verticalLabelPosition=bottom;html=1;verticalAlign=top;strokeWidth=1;dashed=0;shape=mxgraph.aws3d.dashedArrowlessEdge;fillColor=#000000;aspect=fixed;rounded=1;shadow=0;comic=0;fontFamily=Verdana;fontSize=12;fontColor=#000000;flipV=1;direction=east;" parent="1" vertex="1">
          <mxGeometry x="780" y="850" width="994.5" height="565.42" as="geometry" />
        </mxCell>
        <mxCell id="d5ac148becb70bc-12" value="" style="verticalLabelPosition=bottom;html=1;verticalAlign=top;strokeWidth=1;dashed=0;shape=mxgraph.aws3d.dashedArrowlessEdge;aspect=fixed;rounded=1;shadow=0;comic=0;fontFamily=Verdana;fontSize=12;flipV=1;direction=east;" parent="1" vertex="1">
          <mxGeometry x="1110" y="1050" width="974.46" height="555.73" as="geometry" />
        </mxCell>
        <mxCell id="JwNSlMBxFUs_ktbdsOI0-5" value="redis&amp;nbsp;" style="verticalLabelPosition=bottom;html=1;verticalAlign=top;strokeWidth=1;align=center;outlineConnect=0;dashed=0;outlineConnect=0;shape=mxgraph.aws3d.dataServer;strokeColor=#6F0000;aspect=fixed;fontSize=30;fillColor=#a20025;direction=east;" vertex="1" parent="1">
          <mxGeometry x="1700" y="963.26" width="158.67" height="136.74" as="geometry" />
        </mxCell>
        <mxCell id="JwNSlMBxFUs_ktbdsOI0-6" value="" style="verticalLabelPosition=bottom;html=1;verticalAlign=top;strokeWidth=1;align=center;outlineConnect=0;dashed=0;outlineConnect=0;shape=mxgraph.aws3d.dataServer;strokeColor=#6F0000;aspect=fixed;fontSize=30;fontColor=#ffffff;fillColor=#a20025;direction=east;" vertex="1" parent="1">
          <mxGeometry x="1699.4" y="906.37" width="159.27" height="137.26" as="geometry" />
        </mxCell>
        <mxCell id="JwNSlMBxFUs_ktbdsOI0-15" value="mysql" style="html=1;points=[];align=center;image;fontSize=30;image=img/lib/azure2/databases/Azure_Database_MariaDB_Server.svg;fontColor=#000000;strokeColor=#000000;strokeWidth=3;aspect=fixed;direction=east;" vertex="1" parent="1">
          <mxGeometry x="1310" y="1100" width="234.84" height="190" as="geometry" />
        </mxCell>
        <mxCell id="JwNSlMBxFUs_ktbdsOI0-20" value="工作流平台" style="verticalLabelPosition=bottom;html=1;verticalAlign=top;strokeWidth=1;align=center;outlineConnect=0;dashed=0;outlineConnect=0;shape=mxgraph.aws3d.elasticLoadBalancing;aspect=fixed;fontSize=30;fillColor=#eeeeee;strokeColor=#36393d;direction=east;" vertex="1" parent="1">
          <mxGeometry x="1189" y="550" width="172" height="164.84" as="geometry" />
        </mxCell>
        <mxCell id="JwNSlMBxFUs_ktbdsOI0-22" value="" style="verticalLabelPosition=bottom;html=1;verticalAlign=top;strokeWidth=1;align=center;outlineConnect=0;dashed=0;outlineConnect=0;shape=mxgraph.aws3d.dashedArrowlessEdge;fillColor=#000000;aspect=fixed;fontSize=30;fontColor=#000000;" vertex="1" parent="1">
          <mxGeometry x="780" y="1420" width="333.54" height="190" as="geometry" />
        </mxCell>
        <mxCell id="JwNSlMBxFUs_ktbdsOI0-24" value="模型转换服务" style="verticalLabelPosition=bottom;html=1;verticalAlign=top;strokeWidth=1;align=center;outlineConnect=0;dashed=0;outlineConnect=0;shape=mxgraph.aws3d.dataCenter;strokeColor=#5E5E5E;aspect=fixed;fontSize=30;fontColor=#000000;" vertex="1" parent="1">
          <mxGeometry x="520" y="930" width="166.31" height="192" as="geometry" />
        </mxCell>
        <mxCell id="JwNSlMBxFUs_ktbdsOI0-25" value="" style="verticalLabelPosition=bottom;html=1;verticalAlign=top;strokeWidth=1;align=center;outlineConnect=0;dashed=0;outlineConnect=0;shape=mxgraph.aws3d.worker;fillColor=#ECECEC;strokeColor=#5E5E5E;aspect=fixed;fontSize=30;fontColor=#000000;" vertex="1" parent="1">
          <mxGeometry x="550.62" y="939.5" width="105.08" height="71" as="geometry" />
        </mxCell>
        <mxCell id="JwNSlMBxFUs_ktbdsOI0-29" value="BIM轻量化平台" style="verticalLabelPosition=bottom;html=1;verticalAlign=top;strokeWidth=1;align=center;outlineConnect=0;dashed=0;outlineConnect=0;shape=mxgraph.aws3d.cloudfront;fillColor=#ECECEC;strokeColor=#5E5E5E;aspect=fixed;fontSize=30;fontColor=#000000;" vertex="1" parent="1">
          <mxGeometry x="1054.64" y="1230" width="134.36" height="219.8" as="geometry" />
        </mxCell>
        <mxCell id="JwNSlMBxFUs_ktbdsOI0-30" value="" style="verticalLabelPosition=bottom;html=1;verticalAlign=top;strokeWidth=3;align=center;outlineConnect=0;dashed=0;outlineConnect=0;shape=mxgraph.aws3d.arrowSW;fillColor=#000000;aspect=fixed;fontSize=30;fontColor=#000000;" vertex="1" parent="1">
          <mxGeometry x="710" y="900" width="162.31" height="92.75" as="geometry" />
        </mxCell>
        <mxCell id="JwNSlMBxFUs_ktbdsOI0-31" value="" style="verticalLabelPosition=bottom;html=1;verticalAlign=top;strokeWidth=3;align=center;outlineConnect=0;dashed=0;outlineConnect=0;shape=mxgraph.aws3d.arrowSE;fillColor=#000000;aspect=fixed;fontSize=30;fontColor=#000000;" vertex="1" parent="1">
          <mxGeometry x="668.41" y="1110" width="367.49" height="210" as="geometry" />
        </mxCell>
      </root>
    </mxGraphModel>
  </diagram>
</mxfile>
